<svg xmlns="http://www.w3.org/2000/svg" viewBox="0 0 120 120">
  <rect width="120" height="120" rx="28" fill="#05060a"/>
  <path d="M27 51 C23 28 35 14 47 35 C55 31 65 31 73 35 C85 14 97 28 93 51 C102 61 102 82 91 94 C78 108 42 108 29 94 C18 82 18 61 27 51Z" fill="#050607"/>
  <path d="M43 62 C47 66 53 68 60 68 C67 68 73 66 77 62" fill="none" stroke="#e9edf7" stroke-width="5" stroke-linecap="round"/>
  <path d="M43 49 C48 52 53 52 57 49" fill="none" stroke="#e9edf7" stroke-width="5" stroke-linecap="round"/>
  <path d="M63 49 C67 52 72 52 77 49" fill="none" stroke="#e9edf7" stroke-width="5" stroke-linecap="round"/>
  <path d="M58 56 C60 54 62 54 64 56 C63 59 57 59 58 56Z" fill="#e9edf7"/>
  <path d="M60 58 C60 62 57 64 54 64" fill="none" stroke="#e9edf7" stroke-width="3" stroke-linecap="round"/>
  <path d="M60 58 C60 62 63 64 66 64" fill="none" stroke="#e9edf7" stroke-width="3" stroke-linecap="round"/>
  <path d="M34 56 L18 49 M34 62 L16 62 M34 68 L18 75" stroke="#e9edf7" stroke-width="3" stroke-linecap="round"/>
  <path d="M86 56 L102 49 M86 62 L104 62 M86 68 L102 75" stroke="#e9edf7" stroke-width="3" stroke-linecap="round"/>
  <circle cx="60" cy="82" r="5" fill="#e9edf7"/>
  <path d="M60 86 V101" stroke="#e9edf7" stroke-width="4" stroke-linecap="round"/>
</svg>